# Blender v2.79 (sub 0) OBJ File: ''
# www.blender.org
mtllib BlackRose.mtl
o Melon_Rip
v -2.394049 -2.200619 2.200155
v -1.572003 2.251271 1.949436
v 1.590993 2.222908 1.965385
v 2.333031 -2.242912 2.223797
v 0.831683 -0.441430 22.260807
v 2.324358 -2.187348 2.270291
v 5.649262 -1.238579 10.651677
v 5.649262 -1.238579 10.651677
v 2.324358 -2.187348 2.270291
v 5.694140 -2.637694 -0.504528
v 5.738018 2.273575 -0.746632
v 1.449857 2.229170 2.052321
v 5.664268 0.433935 10.556190
v 5.664268 0.433935 10.556190
v 1.449857 2.229170 2.052321
v 0.785346 0.269397 22.220007
v -5.689637 2.375809 -0.803755
v -5.763308 0.535964 10.499335
v -1.431816 2.254954 2.038043
v -1.431816 2.254954 2.038043
v -5.763308 0.535964 10.499335
v -1.007165 0.285555 22.211040
v 5.126515 5.379174 -7.095022
v 5.153139 5.910091 -11.413024
v 2.780393 5.720358 -15.125866
v 2.744472 5.304682 -8.787813
v 5.093370 1.760730 -6.759317
v 5.126515 5.379174 -7.095022
v 2.744472 5.304682 -8.787813
v 2.711320 1.686178 -8.455058
v 5.153139 5.910091 -11.413024
v 5.136215 4.027208 -11.305498
v 2.763631 3.837355 -15.018480
v 2.780393 5.720358 -15.125866
v 2.744472 5.304682 -8.787813
v 2.780393 5.720358 -15.125866
v 2.763631 3.837355 -15.018480
v 2.711320 1.686178 -8.455058
v 5.136215 4.027208 -11.305498
v 5.093370 1.760730 -6.759317
v 2.711320 1.686178 -8.455058
v 2.763631 3.837355 -15.018480
v 5.093370 1.760730 -6.759317
v 5.694140 -2.637694 -0.504528
v 5.738018 2.273575 -0.746632
v 5.126515 5.379174 -7.095022
v 5.664268 0.433935 10.556190
v 0.785346 0.269397 22.220007
v 0.831683 -0.441430 22.260807
v 5.649262 -1.238579 10.651677
v -4.959788 5.469354 -7.145244
v -2.562265 5.351988 -8.814272
v -2.526260 5.767879 -15.152411
v -4.933165 6.000272 -11.463246
v -4.992850 1.851124 -6.809625
v -2.595333 1.733698 -8.481602
v -2.562265 5.351988 -8.814272
v -4.959788 5.469354 -7.145244
v -4.933165 6.000272 -11.463246
v -2.526260 5.767879 -15.152411
v -2.543022 3.884875 -15.045025
v -4.949927 4.117270 -11.355859
v -2.562265 5.351988 -8.814272
v -2.595333 1.733698 -8.481602
v -2.543022 3.884875 -15.045025
v -2.526260 5.767879 -15.152411
v -5.763308 0.535964 10.499335
v -5.778230 -1.136335 10.594736
v -1.066212 -0.424340 22.251320
v -1.007165 0.285555 22.211040
v -4.949927 4.117270 -11.355859
v -2.543022 3.884875 -15.045025
v -2.595333 1.733698 -8.481602
v -4.992850 1.851124 -6.809625
v -1.572003 2.251271 1.949436
v -2.394049 -2.200619 2.200155
v -1.642540 1.877149 11.687700
v -0.993283 4.621401 1.625998
v 2.464175 -6.172528 -9.514733
v 1.202145 -10.202431 -10.680620
v -1.269708 -10.180263 -10.692795
v -2.473430 -6.128279 -9.539640
v -4.992850 1.851124 -6.809625
v -4.959788 5.469354 -7.145244
v -5.689637 2.375809 -0.803755
v -5.733352 -2.535451 -0.561470
v 2.333031 -2.242912 2.223797
v 1.590993 2.222908 1.965385
v 1.056626 4.602983 1.636457
v 1.555611 1.848462 11.703579
v -1.572003 2.251271 1.949436
v -0.679561 5.987763 -11.613795
v 0.901855 5.973578 -11.605912
v 1.590993 2.222908 1.965385
v -2.473430 -6.128279 -9.539640
v -2.394049 -2.200619 2.200155
v 2.333031 -2.242912 2.223797
v 2.464175 -6.172528 -9.514733
v 1.586709 -6.462882 -1.627176
v 2.190578 -6.348548 -8.429687
v 27.717196 -24.491217 -16.409431
v 2.008122 -6.044318 -2.555423
v 27.717196 -24.491217 -16.409431
v 2.190578 -6.348548 -8.429687
v -2.086326 -6.007721 -2.575903
v -27.968241 -23.993282 -16.687187
v -1.681508 -6.433578 -1.643463
v -1.681508 -6.433578 -1.643463
v -27.968241 -23.993282 -16.687187
v -2.214002 -6.309205 -8.451556
v -2.086326 -6.007721 -2.575903
v -2.214002 -6.309205 -8.451556
v -27.968241 -23.993282 -16.687187
v 0.069735 6.765852 -2.166614
v -0.993283 4.621401 1.625998
v 1.056626 4.602983 1.636457
v -2.394049 -2.200619 2.200155
v -2.473430 -6.128279 -9.539640
v -2.533175 -4.924545 4.208681
v 5.153139 5.910091 -11.413024
v 31.148752 6.170388 14.035262
v 5.136215 4.027208 -11.305498
v 2.333031 -2.242912 2.223797
v 1.555611 1.848462 11.703579
v 2.404513 -4.968582 4.233502
v 31.148752 6.170388 14.035262
v 5.738018 2.273575 -0.746632
v 8.776431 -0.322642 3.808844
v 5.649262 -1.238579 10.651677
v 8.776431 -0.322642 3.808844
v 5.664268 0.433935 10.556190
v 1.590993 2.222908 1.965385
v 0.901855 5.973578 -11.605912
v 1.056626 4.602983 1.636457
v 5.136215 4.027208 -11.305498
v 31.148752 6.170388 14.035262
v 5.093370 1.760730 -6.759317
v 31.148752 6.170388 14.035262
v 5.153139 5.910091 -11.413024
v 5.126515 5.379174 -7.095022
v 8.776431 -0.322642 3.808844
v 5.093370 1.760730 -6.759317
v 31.148752 6.170388 14.035262
v 5.664268 0.433935 10.556190
v 8.776431 -0.322642 3.808844
v 5.738018 2.273575 -0.746632
v -1.572003 2.251271 1.949436
v -0.993283 4.621401 1.625998
v -0.679561 5.987763 -11.613795
v 1.202145 -10.202431 -10.680620
v -0.093073 -20.593809 -16.715433
v -1.269708 -10.180263 -10.692795
v 2.404513 -4.968582 4.233502
v -0.080403 -6.736043 4.323108
v -0.065371 -8.342402 -1.365910
v 31.148752 6.170388 14.035262
v 5.126515 5.379174 -7.095022
v 5.738018 2.273575 -0.746632
v 8.776431 -0.322642 3.808844
v 5.694140 -2.637694 -0.504528
v 5.093370 1.760730 -6.759317
v 5.649262 -1.238579 10.651677
v 5.694140 -2.637694 -0.504528
v 8.776431 -0.322642 3.808844
v -5.778230 -1.136335 10.594736
v -2.384819 -2.145200 2.246977
v -1.066212 -0.424340 22.251320
v 2.008122 -6.044318 -2.555423
v 1.586709 -6.462882 -1.627176
v 27.717196 -24.491217 -16.409431
v -0.065371 -8.342402 -1.365910
v -2.533175 -4.924545 4.208681
v -2.473430 -6.128279 -9.539640
v -0.679561 5.987763 -11.613795
v 0.069735 6.765852 -2.166614
v 0.274920 18.750401 -22.037661
v -4.933165 6.000272 -11.463246
v -4.949927 4.117270 -11.355859
v -31.178589 6.727649 13.724496
v 0.274920 18.750401 -22.037661
v 0.069735 6.765852 -2.166614
v 0.901855 5.973578 -11.605912
v -31.178589 6.727649 13.724496
v -8.818937 -0.165380 3.721095
v -5.689637 2.375809 -0.803755
v -5.778230 -1.136335 10.594736
v -5.763308 0.535964 10.499335
v -8.818937 -0.165380 3.721095
v 0.001147 4.690360 7.733159
v -0.993283 4.621401 1.625998
v -1.642540 1.877149 11.687700
v -4.949927 4.117270 -11.355859
v -4.992850 1.851124 -6.809625
v -31.178589 6.727649 13.724496
v -31.178589 6.727649 13.724496
v -4.959788 5.469354 -7.145244
v -4.933165 6.000272 -11.463246
v -8.818937 -0.165380 3.721095
v -31.178589 6.727649 13.724496
v -4.992850 1.851124 -6.809625
v -5.763308 0.535964 10.499335
v -5.689637 2.375809 -0.803755
v -8.818937 -0.165380 3.721095
v -1.269708 -10.180263 -10.692795
v -0.065371 -8.342402 -1.365910
v -2.473430 -6.128279 -9.539640
v -5.778230 -1.136335 10.594736
v -5.733352 -2.535451 -0.561470
v -2.384819 -2.145200 2.246977
v -31.178589 6.727649 13.724496
v -5.689637 2.375809 -0.803755
v -4.959788 5.469354 -7.145244
v -8.818937 -0.165380 3.721095
v -4.992850 1.851124 -6.809625
v -5.733352 -2.535451 -0.561470
v -5.778230 -1.136335 10.594736
v -8.818937 -0.165380 3.721095
v -5.733352 -2.535451 -0.561470
v -2.394049 -2.200619 2.200155
v -2.533175 -4.924545 4.208681
v -1.642540 1.877149 11.687700
v 2.333031 -2.242912 2.223797
v 2.404513 -4.968582 4.233502
v 2.464175 -6.172528 -9.514733
v 2.464175 -6.172528 -9.514733
v -0.065371 -8.342402 -1.365910
v 1.202145 -10.202431 -10.680620
v 2.464175 -6.172528 -9.514733
v 2.404513 -4.968582 4.233502
v -0.065371 -8.342402 -1.365910
v -0.065371 -8.342402 -1.365910
v -0.080403 -6.736043 4.323108
v -2.533175 -4.924545 4.208681
v 1.056626 4.602983 1.636457
v 0.001147 4.690360 7.733159
v 1.555611 1.848462 11.703579
v -0.679561 5.987763 -11.613795
v -0.993283 4.621401 1.625998
v 0.069735 6.765852 -2.166614
v 0.901855 5.973578 -11.605912
v 0.069735 6.765852 -2.166614
v 1.056626 4.602983 1.636457
v 1.056626 4.602983 1.636457
v -0.993283 4.621401 1.625998
v 0.001147 4.690360 7.733159
v -0.185030 -0.568227 35.312279
v 1.555611 1.848462 11.703579
v -0.071808 2.399136 18.164423
v -2.533175 -4.924545 4.208681
v -0.185030 -0.568227 35.312279
v -1.642540 1.877149 11.687700
v -0.080403 -6.736043 4.323108
v -0.185030 -0.568227 35.312279
v -2.533175 -4.924545 4.208681
v 2.404513 -4.968582 4.233502
v -0.185030 -0.568227 35.312279
v -0.080403 -6.736043 4.323108
v 1.555611 1.848462 11.703579
v -0.185030 -0.568227 35.312279
v 2.404513 -4.968582 4.233502
v -1.642540 1.877149 11.687700
v -0.185030 -0.568227 35.312279
v -0.071808 2.399136 18.164423
v -0.679561 5.987763 -11.613795
v 0.274920 18.750401 -22.037661
v 0.901855 5.973578 -11.605912
v -1.269708 -10.180263 -10.692795
v -0.093073 -20.593809 -16.715433
v -0.065371 -8.342402 -1.365910
v -0.065371 -8.342402 -1.365910
v -0.093073 -20.593809 -16.715433
v 1.202145 -10.202431 -10.680620
v 0.001147 4.690360 7.733159
v -1.642540 1.877149 11.687700
v -0.071808 2.399136 18.164423
v 0.001147 4.690360 7.733159
v -0.071808 2.399136 18.164423
v 1.555611 1.848462 11.703579
v 5.738018 2.273575 -0.746632
v 2.324358 -2.187348 2.270291
v 1.449857 2.229170 2.052321
v -5.689637 2.375809 -0.803755
v -2.384819 -2.145200 2.246977
v -5.733352 -2.535451 -0.561470
v 5.738018 2.273575 -0.746632
v 5.694140 -2.637694 -0.504528
v 2.324358 -2.187348 2.270291
v -5.689637 2.375809 -0.803755
v -1.431816 2.254954 2.038043
v -2.384819 -2.145200 2.246977
vt 0.979492 0.000000
vt 0.907227 0.434570
vt 0.616211 0.434570
vt 0.544922 0.000000
vt 0.461914 0.689453
vt 0.908203 0.328125
vt 0.993164 0.679688
vt 0.462891 0.689453
vt 0.908203 0.328125
vt 0.462891 0.324219
vt 0.461914 0.689453
vt 0.461914 0.324219
vt 0.908203 0.328125
vt 0.462891 0.689453
vt 0.993164 0.679688
vt 0.908203 0.328125
vt -38.398438 3.914062
vt -38.398438 3.914062
vt -38.398438 3.914062
vt -38.398438 3.914062
vt -38.398438 3.914062
vt -38.398438 3.914062
vt -0.896484 0.000488
vt -2.304199 -0.291504
vt -1.754883 -0.006348
vt -1.754883 -0.006348
vt -2.304199 -0.291504
vt -2.533691 -0.202148
vt -2.531250 -0.201172
vt -2.293945 -0.319336
vt -1.754883 -0.006348
vt -1.754883 -0.006348
vt -2.293945 -0.319336
vt -0.895996 -0.001953
vt -2.531250 -0.201660
vt -1.754883 -0.006836
vt -2.293945 -0.319824
vt -2.293945 -0.319824
vt -1.754883 -0.006836
vt -0.895508 -0.002441
vt 1.887207 1.548340
vt 2.198730 1.548340
vt 2.468750 1.408691
vt 2.009766 1.408691
vt 1.877930 1.548340
vt 1.887207 1.548340
vt 2.009766 1.408691
vt 2.000488 1.408691
vt 2.198730 1.548340
vt 2.198730 1.548340
vt 2.468750 1.408691
vt 2.468750 1.408691
vt 2.009766 1.408691
vt 2.468750 1.408691
vt 2.468750 1.408691
vt 2.000488 1.408691
vt 2.198730 1.548340
vt 1.877930 1.548340
vt 2.000488 1.408691
vt 2.468750 1.408691
vt 0.348145 0.577148
vt 0.822266 0.576660
vt 0.700684 0.791992
vt 0.249023 0.730957
vt -2.242676 1.787598
vt -1.968750 1.828125
vt -1.971680 1.861328
vt -2.242676 1.865723
vt 1.887207 1.548340
vt 2.009766 1.408203
vt 2.468750 1.408203
vt 2.198730 1.548340
vt 1.877930 1.548340
vt 2.000488 1.408203
vt 2.009766 1.408203
vt 1.887207 1.548340
vt 2.198730 1.548340
vt 2.468750 1.408203
vt 2.468750 1.408203
vt 2.198730 1.548340
vt 2.009766 1.408203
vt 2.000488 1.408203
vt 2.468750 1.408203
vt 2.468750 1.408203
vt -2.242188 1.787598
vt -2.242188 1.865723
vt -1.971680 1.861328
vt -1.968262 1.828125
vt 2.198730 1.548340
vt 2.468750 1.408203
vt 2.000488 1.408203
vt 1.877930 1.548340
vt -3.597656 0.724609
vt -3.597656 0.586914
vt -3.315918 0.714355
vt -3.603516 0.833984
vt 0.614258 1.460449
vt 0.597168 1.333008
vt 0.562988 1.333008
vt 0.545898 1.460449
vt 0.348145 0.577148
vt 0.249023 0.730957
vt 0.700684 0.791992
vt 0.822266 0.576660
vt -3.597656 0.586914
vt -3.597656 0.724609
vt -3.603516 0.833984
vt -3.315918 0.714355
vt 0.165527 0.342285
vt 0.187500 0.801758
vt 0.231445 0.801758
vt 0.253418 0.342285
vt 0.140625 0.738770
vt 0.143555 0.342285
vt 0.275391 0.342285
vt 0.278320 0.738770
vt 2.052734 -2.720215
vt 2.269043 -3.091309
vt 1.250488 -3.090332
vt 2.052734 -2.720215
vt 1.250488 -3.090332
vt 2.269043 -3.091309
vt -1.236816 0.218262
vt -1.252930 0.306641
vt -1.258789 0.217773
vt 2.052734 -2.720215
vt 1.250488 -3.090332
vt 2.269043 -3.091309
vt 2.052734 -2.720215
vt 2.269043 -3.091309
vt 1.250488 -3.090332
vt 1.809082 -0.194336
vt 1.918945 -0.223145
vt 1.918945 -0.166016
vt -3.597656 0.586914
vt -3.944824 0.469727
vt -3.543945 0.484863
vt -0.785645 -1.156250
vt 0.644043 -1.151367
vt -0.785645 -1.156250
vt -3.597656 0.586914
vt -3.315918 0.714355
vt -3.543945 0.484863
vt 0.644043 -1.151367
vt -0.347168 -0.786621
vt -0.121094 -0.732910
vt -2.242676 1.865723
vt -2.417969 1.803711
vt -2.242676 1.787598
vt -3.597656 0.724609
vt -3.985352 0.910156
vt -3.603516 0.833984
vt -0.785645 -1.156250
vt 0.644043 -1.151367
vt -0.604492 -0.989746
vt 0.644043 -1.151367
vt -0.785645 -1.156250
vt -0.609863 -0.994629
vt -0.121094 -0.732910
vt -0.604492 -0.989746
vt 0.644043 -1.151367
vt -1.754883 -0.006348
vt -2.258301 0.001953
vt -2.531250 -0.201172
vt -3.597656 0.724609
vt -3.603516 0.833984
vt -3.985352 0.910156
vt 0.597168 1.333008
vt 0.580078 1.010742
vt 0.562988 1.333008
vt -3.543945 0.484863
vt -3.543945 0.420410
vt -3.711914 0.374512
vt 0.644043 -1.151367
vt -0.609863 -0.994629
vt -0.347168 -0.786621
vt -0.901855 1.810547
vt -0.484863 1.625000
vt -0.613281 1.498047
vt -1.754883 -0.006348
vt -2.533691 -0.202148
vt -2.258301 0.001953
vt -1.754883 -0.006836
vt -2.303711 -0.291992
vt -0.896484 0.000000
vt -1.236816 0.218262
vt -1.258789 0.217773
vt -1.252930 0.306641
vt -3.711914 0.374512
vt -3.543945 0.484863
vt -3.944824 0.469727
vt -2.993164 1.372070
vt -2.837402 1.057129
vt -2.068848 1.374512
vt -0.785645 -1.155762
vt -0.785645 -1.155762
vt 0.643555 -1.150879
vt -2.068848 1.374512
vt -2.837402 1.057129
vt -2.993164 1.372070
vt 0.643555 -1.150879
vt -0.121094 -0.732422
vt -0.347656 -0.786133
vt -2.242188 1.865723
vt -2.242188 1.787598
vt -2.417480 1.803711
vt 2.101074 -0.194824
vt 1.918945 -0.166016
vt 2.214844 -0.149902
vt -0.785645 -1.155762
vt -0.604980 -0.989258
vt 0.643555 -1.150879
vt 0.643555 -1.150879
vt -0.610352 -0.994141
vt -0.785645 -1.155762
vt -0.121094 -0.732422
vt 0.643555 -1.150879
vt -0.604980 -0.989258
vt -1.754883 -0.006836
vt -2.531250 -0.201660
vt -2.258301 0.001465
vt -3.985352 0.327148
vt -3.711914 0.374512
vt -3.944824 0.469727
vt -1.754883 -0.006836
vt -2.533691 -0.202637
vt -2.303711 -0.291992
vt 0.643555 -1.150879
vt -0.347656 -0.786133
vt -0.610352 -0.994141
vt -0.901855 1.810547
vt -0.613281 1.498047
vt -0.484863 1.625000
vt -1.754883 -0.006836
vt -2.258301 0.001465
vt -2.533691 -0.202637
vt -3.597656 0.586914
vt -3.543945 0.484863
vt -3.315918 0.714355
vt -3.597656 0.586914
vt -3.543945 0.484863
vt -3.944824 0.469727
vt -3.944824 0.469727
vt -3.711914 0.374512
vt -3.985352 0.327148
vt -3.944824 0.469727
vt -3.543945 0.484863
vt -3.711914 0.374512
vt -3.711914 0.374512
vt -3.543945 0.420410
vt -3.543945 0.484863
vt 1.918945 -0.166016
vt 2.101074 -0.194336
vt 2.214844 -0.149902
vt -3.985352 0.910156
vt -3.603516 0.833984
vt -3.709961 0.918945
vt -3.985352 0.910156
vt -3.709961 0.918945
vt -3.603516 0.833984
vt 1.918945 -0.166016
vt 1.918945 -0.223145
vt 2.101074 -0.194336
vt 2.916504 -0.194336
vt 2.214844 -0.149902
vt 2.409180 -0.194336
vt -3.543945 0.484863
vt -2.634766 0.578613
vt -3.315918 0.714355
vt -3.543945 0.420410
vt -2.634766 0.578613
vt -3.543945 0.484863
vt -3.543945 0.484863
vt -2.634766 0.578613
vt -3.543945 0.420410
vt -3.315918 0.714355
vt -2.634766 0.578613
vt -3.543945 0.484863
vt 2.214844 -0.149902
vt 2.916504 -0.194824
vt 2.409180 -0.194824
vt 0.889648 0.571777
vt 0.940430 0.928711
vt 0.991211 0.571777
vt -2.399902 1.182129
vt -2.941895 1.375488
vt -2.109375 1.379395
vt -2.109375 1.379395
vt -2.941895 1.375488
vt -2.399902 1.182129
vn 0.0045 -0.0570 -0.9984
vn -0.5395 -0.1477 -0.8289
vn 0.6450 -0.0434 -0.7630
vn -0.6379 -0.0322 -0.7694
vn 0.5451 -0.1572 -0.8235
vn -0.7622 0.6334 0.1338
vn 0.7718 0.6199 0.1416
vn 0.0546 -0.9944 0.0909
vn -0.0302 -0.9918 0.1243
vn 0.0946 0.9825 0.1605
vn 0.2096 0.9725 0.1014
vn -0.0786 0.9840 0.1597
vn -0.1933 0.9761 0.0994
vn -0.1531 0.9844 0.0865
vn -0.5794 0.0802 0.8111
vn 0.8429 -0.0382 -0.5367
vn -0.9999 0.0087 -0.0051
vn 0.4240 -0.8428 -0.3315
vn -0.9943 0.0161 0.1052
vn 0.9229 0.0341 0.3836
vn 0.1698 0.9815 0.0882
vn 0.5726 0.0702 0.8168
vn -0.8380 -0.0236 -0.5452
vn 0.9999 -0.0086 0.0051
vn -0.9260 0.0501 0.3742
vn -0.4355 -0.8352 -0.3358
vn -0.9796 0.2012 0.0006
vn 0.0073 0.2758 -0.9612
vn 0.9933 -0.0011 0.1153
vn 0.9828 0.1842 0.0107
vn -0.0073 -0.9639 -0.2660
vn 0.0101 0.9483 -0.3173
vn -0.5917 -0.8035 -0.0660
vn 0.5740 0.8185 -0.0246
vn -0.6595 0.5333 0.5299
vn 0.5780 -0.8138 -0.0601
vn -0.5592 0.8285 -0.0304
vn 0.0053 0.8698 0.4933
vn -0.9990 0.0449 -0.0083
vn 0.6990 -0.0470 -0.7136
vn 0.9964 0.0655 0.0534
vn -0.4706 0.5940 0.6524
vn 0.9086 0.0157 0.4173
vn 0.9753 0.2206 0.0114
vn 0.4507 -0.8006 -0.3949
vn -0.1276 0.9845 0.1203
vn 0.3922 -0.8669 -0.3076
vn 0.5122 0.8472 0.1412
vn -0.9714 0.2374 0.0015
vn 0.0088 0.5014 -0.8652
vn 0.5702 -0.7902 0.2246
vn -0.3788 0.8164 0.4359
vn 0.8309 -0.4145 -0.3713
vn 0.4937 -0.8626 0.1102
vn -0.0732 -0.9932 0.0903
vn 0.6634 0.5217 0.5364
vn -0.7669 -0.6396 0.0527
vn -0.9893 0.1294 0.0678
vn -0.6925 -0.0349 -0.7206
vn 0.9906 0.1122 0.0779
vn 0.4745 0.5857 0.6571
vn -0.9124 0.0314 0.4081
vn -0.7751 0.6205 0.1192
vn -0.4608 -0.7925 -0.3994
vn 0.1440 0.9821 0.1216
vn -0.4045 -0.8598 -0.3116
vn -0.4984 0.8562 0.1361
vn -0.9266 -0.3277 0.1842
vn 0.0112 -0.9922 0.1245
vn 0.3888 0.8096 0.4397
vn -0.8342 -0.4000 -0.3797
vn -0.5100 -0.8537 0.1050
vn -0.9956 0.0828 0.0433
vn 0.9996 0.0276 0.0019
vn 0.9189 -0.3438 0.1937
vn 0.7549 -0.6530 0.0605
vn -0.5863 -0.7800 0.2187
vn 0.7846 0.6068 0.1271
vn -0.8739 0.4851 0.0294
vn 0.8819 0.4698 0.0383
vn 0.0090 0.9999 -0.0128
vn 0.7196 0.6834 0.1230
vn -0.9961 0.0564 0.0673
vn -0.5915 -0.7911 0.1555
vn 0.5759 -0.8014 0.1615
vn 0.9962 0.0392 0.0775
vn -0.7086 0.6960 0.1158
vn -0.0018 -0.6325 -0.7746
vn -0.9649 -0.2044 0.1649
vn 0.9595 -0.2211 0.1747
usemtl NDS_Material
s 1
f 1/1/1 2/2/1 3/3/1 4/4/1
usemtl NDS_Material.003
f 279/5/2 280/6/2 281/7/2
f 282/8/3 283/9/3 284/10/3
f 285/11/4 286/12/4 287/13/4
f 288/14/5 289/15/5 290/16/5
usemtl NDS_Material.002
f 273/17/6 274/18/6 275/19/6
f 276/20/7 277/21/7 278/22/7
usemtl NDS_Material.001
f 5/23/8 6/24/8 7/25/8
f 8/26/9 9/27/9 10/28/9
f 11/29/10 12/30/10 13/31/10
f 14/32/11 15/33/11 16/34/11
f 17/35/12 18/36/12 19/37/12
f 20/38/13 21/39/13 22/40/13
f 23/41/14 24/42/14 25/43/14 26/44/14
f 27/45/15 28/46/15 29/47/15 30/48/15
f 31/49/16 32/50/16 33/51/16 34/52/16
f 35/53/17 36/54/17 37/55/17 38/56/17
f 39/57/18 40/58/18 41/59/18 42/60/18
f 43/61/19 44/62/19 45/63/19 46/64/19
f 47/65/20 48/66/20 49/67/20 50/68/20
f 51/69/21 52/70/21 53/71/21 54/72/21
f 55/73/22 56/74/22 57/75/22 58/76/22
f 59/77/23 60/78/23 61/79/23 62/80/23
f 63/81/24 64/82/24 65/83/24 66/84/24
f 67/85/25 68/86/25 69/87/25 70/88/25
f 71/89/26 72/90/26 73/91/26 74/92/26
f 75/93/27 76/94/27 77/95/27 78/96/27
f 79/97/28 80/98/28 81/99/28 82/100/28
f 83/101/29 84/102/29 85/103/29 86/104/29
f 87/105/30 88/106/30 89/107/30 90/108/30
f 91/109/31 92/110/31 93/111/31 94/112/31
f 95/113/32 96/114/32 97/115/32 98/116/32
f 99/117/33 100/118/33 101/119/33
f 102/120/34 103/121/34 104/122/34
f 105/123/35 106/124/35 107/125/35
f 108/126/36 109/127/36 110/128/36
f 111/129/37 112/130/37 113/131/37
f 114/132/38 115/133/38 116/134/38
f 117/135/39 118/136/39 119/137/39
f 120/138/40 121/139/40 122/140/40
f 123/141/41 124/142/41 125/143/41
f 126/144/42 127/145/42 128/146/42
f 129/147/43 130/148/43 131/149/43
f 132/150/44 133/151/44 134/152/44
f 135/153/45 136/154/45 137/155/45
f 138/156/46 139/157/46 140/158/46
f 141/159/47 142/160/47 143/161/47
f 144/162/48 145/163/48 146/164/48
f 147/165/49 148/166/49 149/167/49
f 150/168/50 151/169/50 152/170/50
f 153/171/51 154/172/51 155/173/51
f 156/174/52 157/175/52 158/176/52
f 159/177/53 160/178/53 161/179/53
f 162/180/54 163/181/54 164/182/54
f 165/183/55 166/184/55 167/185/55
f 168/186/56 169/187/56 170/188/56
f 171/189/57 172/190/57 173/191/57
f 174/192/58 175/193/58 176/194/58
f 177/195/59 178/196/59 179/197/59
f 180/198/60 181/199/60 182/200/60
f 183/201/61 184/202/61 185/203/61
f 186/204/62 187/205/62 188/206/62
f 189/207/63 190/208/63 191/209/63
f 192/210/64 193/211/64 194/212/64
f 195/213/65 196/214/65 197/215/65
f 198/216/66 199/217/66 200/218/66
f 201/219/67 202/220/67 203/221/67
f 204/222/68 205/223/68 206/224/68
f 207/225/69 208/226/69 209/227/69
f 210/228/70 211/229/70 212/230/70
f 213/231/71 214/232/71 215/233/71
f 216/234/72 217/235/72 218/236/72
f 219/237/73 220/238/73 221/239/73
f 222/240/74 223/241/74 224/242/74
f 225/243/75 226/244/75 227/245/75
f 228/246/76 229/247/76 230/248/76
f 231/249/77 232/250/77 233/251/77
f 234/252/78 235/253/78 236/254/78
f 237/255/79 238/256/79 239/257/79
f 240/258/80 241/259/80 242/260/80
f 243/261/81 244/262/81 245/263/81
f 246/264/82 247/265/82 248/266/82
f 249/267/83 250/268/83 251/269/83
f 252/270/84 253/271/84 254/272/84
f 255/273/85 256/274/85 257/275/85
f 258/276/86 259/277/86 260/278/86
f 261/279/87 262/280/87 263/281/87
f 264/282/88 265/283/88 266/284/88
f 267/285/89 268/286/89 269/287/89
f 270/288/90 271/289/90 272/290/90
