# Blender v2.93.0 OBJ File: ''
# www.blender.org
mtllib ShieldBad.mtl
o polygon0
v 3.533366 -0.002680 2.224050
v 3.109848 0.645012 2.258525
v 2.699727 -0.002680 2.292106
v 3.956885 -0.650371 2.189576
v 3.109848 -0.650371 2.258525
v 4.367005 -0.002680 2.156173
v 3.956885 0.645012 2.189576
v -1.887344 -0.002680 2.222800
v -2.311041 0.645012 2.188325
v -2.721161 -0.002680 2.154744
v -1.463825 -0.650371 2.257275
v -2.311041 -0.650371 2.188325
v -1.053705 -0.002680 2.290678
v -1.463825 0.645012 2.257275
v 0.820421 1.370048 2.298894
v 0.396903 2.017739 2.242628
v -0.013218 1.370048 2.298894
v 1.244118 0.722356 2.324616
v 0.396903 0.722356 2.324616
v 1.654060 1.370048 2.298894
v 1.244118 2.017739 2.242628
v 2.177786 -0.689847 2.324616
v 1.344147 -0.689847 2.324616
v 1.754269 -1.337539 2.302287
v 2.601305 -0.042156 2.299965
v 1.754269 -0.042156 2.324616
v 3.011425 -0.689847 2.266562
v 2.601305 -1.337539 2.278174
v 0.820421 0.002143 2.346587
v -0.013218 0.002143 2.324616
v 0.396903 -0.645548 2.324616
v 1.244118 0.649835 2.324616
v 0.396903 0.649835 2.324616
v 1.654060 0.002143 2.324616
v 1.244118 -0.645548 2.324616
v 0.820421 -1.382016 2.298358
v 0.396903 -0.734325 2.324615
v -0.013218 -1.382016 2.298358
v 1.244118 -2.029708 2.241912
v 0.396903 -2.029708 2.241912
v 1.654060 -1.382016 2.298358
v 1.244118 -0.734325 2.324615
v -0.527656 -0.689847 2.324616
v -1.361295 -0.689847 2.265670
v -0.951353 -1.337539 2.277279
v -0.104138 -0.042156 2.324616
v -0.951353 -0.042156 2.299073
v 0.305983 -0.689847 2.324616
v -0.104138 -1.337539 2.302287
v 2.185110 0.689489 2.324616
v 1.351471 0.689489 2.324616
v 1.761592 0.041798 2.324616
v 2.608629 1.337181 2.277280
v 1.761592 1.337181 2.301752
v 3.018749 0.689489 2.266027
v 2.608629 0.041798 2.299430
v -0.530157 0.689489 2.324616
v -1.363796 0.689489 2.265491
v -0.953675 0.041798 2.298894
v -0.106639 1.337181 2.301752
v -0.953675 1.337181 2.276744
v 0.303483 0.689489 2.324616
v -0.106639 0.041798 2.324616
vn 0.0814 0.0002 0.9967
vn 0.0811 0.0000 0.9967
vn 0.0812 -0.0000 0.9967
vn 0.0814 -0.0002 0.9967
vn -0.0813 -0.0002 0.9967
vn -0.0811 0.0000 0.9967
vn -0.0812 0.0000 0.9967
vn -0.0813 0.0002 0.9967
vn 0.0000 0.0631 0.9980
vn 0.0000 0.0865 0.9962
vn 0.0000 0.0397 0.9992
vn 0.0325 -0.0170 0.9993
vn 0.0000 -0.0172 0.9999
vn 0.0132 -0.0431 0.9990
vn 0.0508 0.0048 0.9987
vn 0.0135 0.0088 0.9999
vn 0.0695 -0.0168 0.9974
vn 0.0504 -0.0386 0.9980
vn -0.0000 -0.0000 1.0000
vn -0.0263 -0.0000 0.9997
vn -0.0141 -0.0247 0.9996
vn 0.0141 0.0247 0.9996
vn -0.0141 0.0247 0.9996
vn 0.0263 -0.0000 0.9997
vn 0.0141 -0.0247 0.9996
vn 0.0000 -0.0637 0.9980
vn 0.0000 -0.0405 0.9992
vn 0.0000 -0.0868 0.9962
vn -0.0332 -0.0170 0.9993
vn -0.0705 -0.0168 0.9974
vn -0.0515 -0.0393 0.9979
vn -0.0140 0.0092 0.9999
vn -0.0518 0.0055 0.9986
vn -0.0137 -0.0434 0.9990
vn 0.0329 0.0173 0.9993
vn 0.0000 0.0176 0.9998
vn 0.0138 -0.0090 0.9999
vn 0.0510 0.0396 0.9979
vn 0.0134 0.0440 0.9989
vn 0.0701 0.0171 0.9974
vn 0.0514 -0.0052 0.9987
vn -0.0334 0.0173 0.9993
vn -0.0707 0.0171 0.9973
vn -0.0520 -0.0056 0.9986
vn -0.0137 0.0442 0.9989
vn -0.0516 0.0400 0.9979
vn -0.0141 -0.0092 0.9999
usemtl lambert1
s off
f 1//1 2//1 3//1
f 4//2 1//2 5//2
f 6//3 7//3 1//3
f 4//3 6//3 1//3
f 1//4 3//4 5//4
f 7//2 2//2 1//2
f 8//5 9//5 10//5
f 11//6 8//6 12//6
f 13//7 14//7 8//7
f 11//7 13//7 8//7
f 8//8 10//8 12//8
f 14//6 9//6 8//6
s 1
f 15//9 16//10 17//9
f 18//11 15//9 19//11
f 20//9 21//10 15//9
f 18//11 20//9 15//9
f 15//9 17//9 19//11
f 21//10 16//10 15//9
f 22//12 23//13 24//14
f 25//15 26//16 22//12
f 27//17 22//12 28//18
f 25//15 22//12 27//17
f 22//12 26//16 23//13
f 28//18 22//12 24//14
f 29//19 30//20 31//21
f 32//22 33//23 29//19
f 34//24 29//19 35//25
f 32//22 29//19 34//24
f 29//19 33//23 30//20
f 35//25 29//19 31//21
f 36//26 37//27 38//26
f 39//28 36//26 40//28
f 41//26 42//27 36//26
f 39//28 41//26 36//26
f 36//26 38//26 40//28
f 42//27 37//27 36//26
f 43//29 44//30 45//31
f 46//32 47//33 43//29
f 48//13 43//29 49//34
f 46//32 43//29 48//13
f 43//29 47//33 44//30
f 49//34 43//29 45//31
f 50//35 51//36 52//37
f 53//38 54//39 50//35
f 55//40 50//35 56//41
f 53//38 50//35 55//40
f 50//35 54//39 51//36
f 56//41 50//35 52//37
f 57//42 58//43 59//44
f 60//45 61//46 57//42
f 62//36 57//42 63//47
f 60//45 57//42 62//36
f 57//42 61//46 58//43
f 63//47 57//42 59//44
